<svg preserveAspectRatio="none" overflow="visible" style="display: block;" width="14.3333" height="10.3333" viewBox="0 0 14.3333 10.3333" fill="none" xmlns="http://www.w3.org/2000/svg">
<g id="Vector">
<path d="M5.33333 7.16667C5.33333 5.97005 4.36328 5 3.16667 5C1.97005 5 1 5.97005 1 7.16667C1 8.36328 1.97005 9.33333 3.16667 9.33333C4.36328 9.33333 5.33333 8.36328 5.33333 7.16667ZM6.33333 7.16667C6.33333 8.91557 4.91557 10.3333 3.16667 10.3333C1.41776 10.3333 0 8.91557 0 7.16667C0 5.41776 1.41776 4 3.16667 4C4.91557 4 6.33333 5.41776 6.33333 7.16667Z" fill="#191919"/>
<path d="M13.3333 7.16667C13.3333 5.97005 12.3633 5 11.1667 5C9.97005 5 9 5.97005 9 7.16667C9 8.36328 9.97005 9.33333 11.1667 9.33333C12.3633 9.33333 13.3333 8.36328 13.3333 7.16667ZM14.3333 7.16667C14.3333 8.91557 12.9156 10.3333 11.1667 10.3333C9.41776 10.3333 8 8.91557 8 7.16667C8 5.41776 9.41776 4 11.1667 4C12.9156 4 14.3333 5.41776 14.3333 7.16667Z" fill="#191919"/>
<path d="M8 7.16667C8 6.94565 7.91214 6.73375 7.75586 6.57747C7.59958 6.42119 7.38768 6.33333 7.16667 6.33333C6.94565 6.33333 6.73375 6.42119 6.57747 6.57747C6.42119 6.73375 6.33333 6.94565 6.33333 7.16667C6.33333 7.44281 6.10948 7.66667 5.83333 7.66667C5.55719 7.66667 5.33333 7.44281 5.33333 7.16667C5.33333 6.68044 5.52663 6.21426 5.87044 5.87044C6.21426 5.52663 6.68044 5.33333 7.16667 5.33333C7.6529 5.33333 8.11907 5.52663 8.46289 5.87044C8.80671 6.21426 9 6.68044 9 7.16667C9 7.44281 8.77614 7.66667 8.5 7.66667C8.22386 7.66667 8 7.44281 8 7.16667Z" fill="#191919"/>
<path d="M4.5 0C4.77614 0 5 0.223858 5 0.5C5 0.776142 4.77614 1 4.5 1C4.04475 1 3.77235 1.09753 3.56966 1.24544C3.35662 1.4009 3.16915 1.64856 2.95117 2.05013L1.29492 6.02539C1.18875 6.28021 0.896122 6.40096 0.641276 6.29492C0.386452 6.18875 0.265705 5.89612 0.371745 5.64128L2.03841 1.64128L2.0599 1.59635C2.30389 1.14322 2.5804 0.729445 2.98047 0.4375C3.39439 0.135545 3.88872 0 4.5 0Z" fill="#191919"/>
<path d="M9.83333 0C10.4173 0 10.9068 0.138613 11.3229 0.434245C11.6779 0.686466 11.948 1.03068 12.1777 1.42448L12.2734 1.59635L12.2949 1.64128L13.9616 5.64128C14.0676 5.89612 13.9469 6.18875 13.6921 6.29492C13.4372 6.40096 13.1446 6.28021 13.0384 6.02539L11.3822 2.05078C11.1699 1.66055 10.9674 1.40843 10.7435 1.24935C10.5262 1.09503 10.2492 1 9.83333 1C9.55719 1 9.33333 0.776142 9.33333 0.5C9.33333 0.223858 9.55719 0 9.83333 0Z" fill="#191919"/>
</g>
</svg>
