<svg preserveAspectRatio="none" overflow="visible" style="display: block;" width="17.4998" height="17.5" viewBox="0 0 17.4998 17.5" fill="none" xmlns="http://www.w3.org/2000/svg">
<g id="Vector">
<path d="M3.53738 11.6571C4.06382 11.6733 4.56894 11.8597 4.97862 12.1844L5.14789 12.3317L5.15603 12.339C6.06354 13.235 6.05563 14.6814 5.26915 15.6121L5.26833 15.6113C4.92612 16.0182 4.44807 16.3252 3.97195 16.5578C3.48812 16.7941 2.96215 16.9758 2.48594 17.112C2.00793 17.2487 1.56642 17.3439 1.2449 17.4049C1.08366 17.4356 0.951113 17.4578 0.858341 17.4725C0.812147 17.4798 0.775625 17.4851 0.750105 17.4888C0.737316 17.4906 0.727109 17.4918 0.719994 17.4928C0.716585 17.4933 0.71391 17.4942 0.711856 17.4945H0.707787C0.514759 17.5203 0.320591 17.4548 0.182885 17.3171C0.0453479 17.1794 -0.0202036 16.9858 0.0054761 16.793V16.7889C0.00576011 16.7868 0.00660774 16.7835 0.0071037 16.7799C0.00809407 16.7728 0.00933242 16.7625 0.0111727 16.7498C0.0148898 16.7243 0.0201311 16.6878 0.0274488 16.6416C0.0421414 16.5489 0.0644248 16.4169 0.0949943 16.2559C0.156059 15.9342 0.251992 15.4922 0.388777 15.014C0.524965 14.5379 0.705903 14.0125 0.942162 13.5288C1.17499 13.0521 1.48187 12.5723 1.88943 12.23C2.34943 11.8427 2.93631 11.6385 3.53738 11.6571ZM3.49913 12.9071C3.20555 12.898 2.91888 12.9977 2.69428 13.187C2.47683 13.3697 2.26207 13.6743 2.06521 14.0773C1.87193 14.4731 1.71412 14.9233 1.58995 15.3574C1.51516 15.6189 1.4553 15.8703 1.40603 16.0931C1.62903 16.0438 1.88073 15.9849 2.14252 15.91C2.57673 15.7858 3.02759 15.6281 3.42344 15.4347C3.8263 15.2379 4.13033 15.0239 4.31293 14.8065L4.31374 14.8057C4.7104 14.3364 4.6862 13.6324 4.27712 13.2285C4.06572 13.0305 3.78888 12.9161 3.49913 12.9071Z" fill="#1570EF"/>
<path d="M16.8788 0.000218313C17.2223 0.00245161 17.4997 0.281712 17.4998 0.625218C17.4998 3.01446 16.8068 7.23762 12.2231 10.3111C12.2185 10.3142 12.2132 10.3171 12.2084 10.32C11.1206 11.0079 9.96666 11.5853 8.76361 12.0429C8.53355 12.1304 8.2736 12.0745 8.09955 11.9004L5.59955 9.40045C5.42489 9.2257 5.36912 8.9645 5.45795 8.73394C5.91652 7.54425 6.49409 6.40359 7.18158 5.32981C8.20883 3.68952 9.63853 2.33923 11.3344 1.40647C13.0323 0.472618 14.9411 -0.0118004 16.8788 0.000218313ZM16.2286 1.26649C14.7266 1.35275 13.2596 1.77419 11.9366 2.50185C10.4257 3.33292 9.15228 4.53674 8.2379 5.99875L8.23464 6.00445C7.66531 6.8937 7.17585 7.83139 6.77387 8.80718L8.69363 10.7269C9.67855 10.3269 10.6262 9.84023 11.5257 9.27268C15.2569 6.77087 16.1027 3.46077 16.2286 1.26649Z" fill="#1570EF"/>
<path d="M4.70437 4.62321C5.21938 4.57537 5.74711 4.60823 6.21072 4.66797C6.67682 4.72804 7.09538 4.81754 7.39643 4.89177C7.54751 4.92902 7.67069 4.96305 7.75694 4.98779C7.80003 5.00016 7.83396 5.01064 7.85785 5.01791C7.86981 5.02154 7.87956 5.02393 7.88633 5.02604C7.88966 5.02708 7.89246 5.02785 7.89447 5.02848C7.89545 5.02879 7.89626 5.02909 7.89691 5.0293L7.89773 5.03011C8.22631 5.13522 8.40865 5.48678 8.30382 5.81543C8.19875 6.14423 7.84648 6.32577 7.51768 6.2207C7.51696 6.22048 7.51544 6.22046 7.51361 6.21989C7.50964 6.21865 7.50299 6.21609 7.49408 6.21338C7.47608 6.20791 7.44819 6.19938 7.41189 6.18897C7.33883 6.16801 7.23085 6.13898 7.09695 6.10596C6.82774 6.03959 6.45775 5.96061 6.05121 5.9082C5.64203 5.85547 5.21258 5.83184 4.81993 5.86833C4.42188 5.90532 4.10688 6 3.88813 6.14583C3.46559 6.42916 3.10424 7.08655 2.84239 7.80843C2.77536 7.99323 2.71961 8.17207 2.67231 8.33415H6.04145C6.38662 8.33415 6.66645 8.61397 6.66645 8.95915C6.66623 9.30415 6.38649 9.58415 6.04145 9.58415H1.87478C1.68948 9.58415 1.51338 9.50178 1.39464 9.35954C1.27591 9.2173 1.22645 9.02915 1.25954 8.84684L1.26036 8.84603V8.84359C1.26071 8.8417 1.26141 8.83854 1.26199 8.83545C1.26314 8.82931 1.26481 8.82078 1.26687 8.81022C1.27108 8.78868 1.27749 8.75827 1.28559 8.71989C1.30181 8.64294 1.32593 8.5335 1.35883 8.40088C1.42439 8.1366 1.52513 7.77382 1.66726 7.382C1.93645 6.63988 2.4086 5.63117 3.19395 5.1058C3.6502 4.80163 4.1946 4.67059 4.70437 4.62321Z" fill="#1570EF"/>
<path d="M7.91645 15.6254V11.4588C7.91645 11.1136 8.19627 10.8338 8.54145 10.8338C8.88662 10.8338 9.16645 11.1136 9.16645 11.4588V14.8279C9.32847 14.7806 9.50746 14.7248 9.69216 14.6578C10.4145 14.3958 11.0726 14.0342 11.3556 13.6113C11.5011 13.3925 11.5953 13.0778 11.6323 12.6803C11.6688 12.2876 11.6451 11.8582 11.5924 11.449C11.54 11.0425 11.461 10.6725 11.3946 10.4033C11.3616 10.2693 11.3318 10.1614 11.3108 10.0883C11.3004 10.0519 11.2919 10.0241 11.2864 10.0061C11.2837 9.9973 11.2819 9.99058 11.2807 9.98659L11.2791 9.98252C11.174 9.65375 11.3556 9.30148 11.6843 9.19639C12.0131 9.09134 12.3654 9.27291 12.4705 9.60166V9.60329C12.4707 9.60392 12.471 9.60481 12.4713 9.60573C12.4719 9.60772 12.4727 9.6106 12.4737 9.61387C12.4759 9.62064 12.4791 9.63039 12.4827 9.64235C12.49 9.66626 12.5004 9.70019 12.5128 9.74326C12.5375 9.82952 12.5708 9.9527 12.608 10.1038C12.6822 10.4048 12.7717 10.8233 12.8318 11.2895C12.8916 11.7531 12.9244 12.2808 12.8766 12.7958C12.8292 13.3056 12.699 13.8492 12.3948 14.3054L12.394 14.3063C11.8686 15.0915 10.8599 15.5638 10.1178 15.8329C9.72596 15.9751 9.36312 16.0758 9.0989 16.1414C8.96649 16.1742 8.85762 16.1984 8.7807 16.2146C8.7422 16.2227 8.71112 16.2291 8.68956 16.2333C8.6789 16.2354 8.67045 16.2371 8.66433 16.2382C8.66129 16.2388 8.65888 16.2395 8.65701 16.2398C8.65611 16.24 8.65518 16.2397 8.65456 16.2398L8.65375 16.2407C8.4716 16.2737 8.28322 16.2241 8.14105 16.1056C7.99881 15.9868 7.91645 15.8107 7.91645 15.6254Z" fill="#1570EF"/>
</g>
</svg>
